<?xml version="1.0" standalone="no"?>
<!DOCTYPE svg PUBLIC "-//W3C//DTD SVG 20010904//EN"
 "http://www.w3.org/TR/2001/REC-SVG-20010904/DTD/svg10.dtd">
<svg version="1.0" xmlns="http://www.w3.org/2000/svg"
 width="948.000000pt" height="948.000000pt" viewBox="0 0 948.000000 948.000000"
 preserveAspectRatio="xMidYMid meet">
<metadata>
Created by potrace 1.16, written by Peter Selinger 2001-2019
</metadata>
<g transform="translate(0.000000,948.000000) scale(0.100000,-0.100000)"
fill="#000000" stroke="none">
<path d="M52 9427 l-52 -53 0 -4687 0 -4687 4740 0 4740 0 0 4678 0 4678 -63
62 -63 62 -4625 0 -4625 0 -52 -53z m5003 3 c1669 -122 3120 -1093 3870 -2590
244 -488 393 -992 462 -1570 26 -211 25 -825 0 -1030 -96 -773 -334 -1431
-743 -2054 -291 -442 -668 -845 -1092 -1164 -712 -538 -1553 -858 -2445 -931
-162 -14 -596 -14 -747 -1 -1011 88 -1918 464 -2679 1113 -143 122 -415 396
-532 537 -551 660 -900 1412 -1038 2235 -41 246 -53 387 -58 695 -7 406 12
641 83 1001 175 898 625 1739 1279 2394 641 641 1430 1073 2320 1269 235 51
395 74 720 99 99 8 473 6 600 -3z"/>
</g>
</svg>
